<svg xmlns="http://www.w3.org/2000/svg" viewBox="0 0 600 450">
  <!-- Background Dark -->
  <rect width="600" height="450" fill="#1e1e1e"/>
  
  <!-- Title -->
  <text x="300" y="35" text-anchor="middle" font-family="Arial, sans-serif" font-size="20" font-weight="bold" fill="#e0e0e0">Widget Tree - Árbol de Widgets</text>
  
  <!-- Level 0: MaterialApp -->
  <rect x="225" y="60" width="150" height="40" rx="8" fill="#0288d1"/>
  <text x="300" y="85" text-anchor="middle" font-family="monospace" font-size="14" fill="white" font-weight="bold">MaterialApp</text>
  
  <!-- Connector L0-L1 -->
  <line x1="300" y1="100" x2="300" y2="130" stroke="#666666" stroke-width="2"/>
  
  <!-- Level 1: Scaffold -->
  <rect x="225" y="130" width="150" height="40" rx="8" fill="#7c3aed"/>
  <text x="300" y="155" text-anchor="middle" font-family="monospace" font-size="14" fill="white" font-weight="bold">Scaffold</text>
  
  <!-- Connectors L1-L2 -->
  <line x1="300" y1="170" x2="300" y2="190" stroke="#666666" stroke-width="2"/>
  <line x1="150" y1="190" x2="450" y2="190" stroke="#666666" stroke-width="2"/>
  <line x1="150" y1="190" x2="150" y2="210" stroke="#666666" stroke-width="2"/>
  <line x1="300" y1="190" x2="300" y2="210" stroke="#666666" stroke-width="2"/>
  <line x1="450" y1="190" x2="450" y2="210" stroke="#666666" stroke-width="2"/>
  
  <!-- Level 2: AppBar, Body, FAB -->
  <rect x="75" y="210" width="150" height="35" rx="6" fill="#f59e0b"/>
  <text x="150" y="233" text-anchor="middle" font-family="monospace" font-size="12" fill="#1e1e1e" font-weight="bold">AppBar</text>
  
  <rect x="225" y="210" width="150" height="35" rx="6" fill="#10b981"/>
  <text x="300" y="233" text-anchor="middle" font-family="monospace" font-size="12" fill="white" font-weight="bold">Column (body)</text>
  
  <rect x="375" y="210" width="150" height="35" rx="6" fill="#ec4899"/>
  <text x="450" y="233" text-anchor="middle" font-family="monospace" font-size="12" fill="white" font-weight="bold">FloatingActionButton</text>
  
  <!-- Connectors L2-L3 from Column -->
  <line x1="300" y1="245" x2="300" y2="265" stroke="#666666" stroke-width="2"/>
  <line x1="200" y1="265" x2="400" y2="265" stroke="#666666" stroke-width="2"/>
  <line x1="200" y1="265" x2="200" y2="285" stroke="#666666" stroke-width="2"/>
  <line x1="300" y1="265" x2="300" y2="285" stroke="#666666" stroke-width="2"/>
  <line x1="400" y1="265" x2="400" y2="285" stroke="#666666" stroke-width="2"/>
  
  <!-- Level 3: Children of Column -->
  <rect x="125" y="285" width="150" height="35" rx="6" fill="#06b6d4"/>
  <text x="200" y="308" text-anchor="middle" font-family="monospace" font-size="12" fill="#1e1e1e" font-weight="bold">Container</text>
  
  <rect x="225" y="285" width="150" height="35" rx="6" fill="#06b6d4"/>
  <text x="300" y="308" text-anchor="middle" font-family="monospace" font-size="12" fill="#1e1e1e" font-weight="bold">Expanded</text>
  
  <rect x="325" y="285" width="150" height="35" rx="6" fill="#06b6d4"/>
  <text x="400" y="308" text-anchor="middle" font-family="monospace" font-size="12" fill="#1e1e1e" font-weight="bold">Row</text>
  
  <!-- Level 4: Leaf widgets -->
  <line x1="200" y1="320" x2="200" y2="345" stroke="#666666" stroke-width="2"/>
  <rect x="140" y="345" width="120" height="30" rx="5" fill="#6b7280"/>
  <text x="200" y="365" text-anchor="middle" font-family="monospace" font-size="11" fill="white">Text</text>
  
  <line x1="300" y1="320" x2="300" y2="345" stroke="#666666" stroke-width="2"/>
  <rect x="240" y="345" width="120" height="30" rx="5" fill="#6b7280"/>
  <text x="300" y="365" text-anchor="middle" font-family="monospace" font-size="11" fill="white">ListView</text>
  
  <line x1="400" y1="320" x2="400" y2="345" stroke="#666666" stroke-width="2"/>
  <line x1="360" y1="345" x2="440" y2="345" stroke="#666666" stroke-width="2"/>
  <line x1="360" y1="345" x2="360" y2="360" stroke="#666666" stroke-width="2"/>
  <line x1="440" y1="345" x2="440" y2="360" stroke="#666666" stroke-width="2"/>
  
  <rect x="320" y="360" width="80" height="25" rx="4" fill="#4b5563"/>
  <text x="360" y="377" text-anchor="middle" font-family="monospace" font-size="10" fill="white">Icon</text>
  
  <rect x="400" y="360" width="80" height="25" rx="4" fill="#4b5563"/>
  <text x="440" y="377" text-anchor="middle" font-family="monospace" font-size="10" fill="white">Text</text>
  
  <!-- Legend -->
  <rect x="20" y="400" width="560" height="40" rx="5" fill="#2d2d2d"/>
  <text x="40" y="425" font-family="Arial, sans-serif" font-size="11" fill="#e0e0e0">
    <tspan font-weight="bold">Leyenda:</tspan>
    <tspan fill="#0288d1"> ■ Root</tspan>
    <tspan fill="#7c3aed"> ■ Structure</tspan>
    <tspan fill="#f59e0b"> ■ Navigation</tspan>
    <tspan fill="#10b981"> ■ Layout</tspan>
    <tspan fill="#06b6d4"> ■ Container</tspan>
    <tspan fill="#6b7280"> ■ Leaf</tspan>
  </text>
</svg>