<svg xmlns="http://www.w3.org/2000/svg" viewBox="0 0 700 350">
  <defs>
    <marker id="arrowhead" markerWidth="10" markerHeight="7" refX="9" refY="3.5" orient="auto">
      <polygon points="0 0, 10 3.5, 0 7" fill="#ef4444"/>
    </marker>
    <marker id="arrowhead-blue" markerWidth="10" markerHeight="7" refX="9" refY="3.5" orient="auto">
      <polygon points="0 0, 10 3.5, 0 7" fill="#3b82f6"/>
    </marker>
  </defs>
  
  <!-- Background Dark -->
  <rect width="700" height="350" fill="#1e1e1e"/>
  
  <!-- Title -->
  <text x="350" y="30" text-anchor="middle" font-family="Arial, sans-serif" font-size="20" font-weight="bold" fill="#e0e0e0">Column vs Row - Ejes Principal y Cruzado</text>
  
  <!-- COLUMN Section -->
  <text x="175" y="65" text-anchor="middle" font-family="Arial, sans-serif" font-size="16" font-weight="bold" fill="#7c3aed">Column</text>
  
  <!-- Column container -->
  <rect x="75" y="80" width="200" height="240" rx="8" fill="#2d2d2d" stroke="#7c3aed" stroke-width="2" stroke-dasharray="5,5"/>
  
  <!-- Column children -->
  <rect x="100" y="100" width="150" height="50" rx="6" fill="#7c3aed"/>
  <text x="175" y="130" text-anchor="middle" font-family="monospace" font-size="12" fill="white">Child 1</text>
  
  <rect x="100" y="165" width="150" height="50" rx="6" fill="#7c3aed"/>
  <text x="175" y="195" text-anchor="middle" font-family="monospace" font-size="12" fill="white">Child 2</text>
  
  <rect x="100" y="230" width="150" height="50" rx="6" fill="#7c3aed"/>
  <text x="175" y="260" text-anchor="middle" font-family="monospace" font-size="12" fill="white">Child 3</text>
  
  <!-- Column Main Axis (vertical) -->
  <line x1="50" y1="95" x2="50" y2="300" stroke="#ef4444" stroke-width="3" marker-end="url(#arrowhead)"/>
  <text x="35" y="200" text-anchor="middle" font-family="Arial, sans-serif" font-size="11" fill="#ef4444" transform="rotate(-90,35,200)">Main Axis ↓</text>
  
  <!-- Column Cross Axis (horizontal) -->
  <line x1="85" y1="330" x2="265" y2="330" stroke="#3b82f6" stroke-width="3" marker-end="url(#arrowhead-blue)"/>
  <text x="175" y="345" text-anchor="middle" font-family="Arial, sans-serif" font-size="11" fill="#3b82f6">Cross Axis →</text>
  
  <!-- ROW Section -->
  <text x="525" y="65" text-anchor="middle" font-family="Arial, sans-serif" font-size="16" font-weight="bold" fill="#10b981">Row</text>
  
  <!-- Row container -->
  <rect x="350" y="120" width="300" height="120" rx="8" fill="#2d2d2d" stroke="#10b981" stroke-width="2" stroke-dasharray="5,5"/>
  
  <!-- Row children -->
  <rect x="370" y="140" width="80" height="80" rx="6" fill="#10b981"/>
  <text x="410" y="185" text-anchor="middle" font-family="monospace" font-size="12" fill="white">Child 1</text>
  
  <rect x="460" y="140" width="80" height="80" rx="6" fill="#10b981"/>
  <text x="500" y="185" text-anchor="middle" font-family="monospace" font-size="12" fill="white">Child 2</text>
  
  <rect x="550" y="140" width="80" height="80" rx="6" fill="#10b981"/>
  <text x="590" y="185" text-anchor="middle" font-family="monospace" font-size="12" fill="white">Child 3</text>
  
  <!-- Row Main Axis (horizontal) -->
  <line x1="360" y1="260" x2="640" y2="260" stroke="#ef4444" stroke-width="3" marker-end="url(#arrowhead)"/>
  <text x="500" y="275" text-anchor="middle" font-family="Arial, sans-serif" font-size="11" fill="#ef4444">Main Axis →</text>
  
  <!-- Row Cross Axis (vertical) -->
  <line x1="670" y1="130" x2="670" y2="230" stroke="#3b82f6" stroke-width="3" marker-end="url(#arrowhead-blue)"/>
  <text x="685" y="180" text-anchor="middle" font-family="Arial, sans-serif" font-size="11" fill="#3b82f6" transform="rotate(90,685,180)">Cross Axis ↓</text>
  
  <!-- Legend -->
  <rect x="350" y="290" width="300" height="50" rx="5" fill="#2d2d2d"/>
  <line x1="370" y1="315" x2="400" y2="315" stroke="#ef4444" stroke-width="3"/>
  <text x="410" y="320" font-family="Arial, sans-serif" font-size="12" fill="#e0e0e0">Main Axis (dirección de hijos)</text>
  <line x1="520" y1="315" x2="550" y2="315" stroke="#3b82f6" stroke-width="3"/>
  <text x="560" y="320" font-family="Arial, sans-serif" font-size="12" fill="#e0e0e0">Cross Axis</text>
</svg>