<svg xmlns="http://www.w3.org/2000/svg" viewBox="0 0 800 500">
  <rect width="800" height="500" fill="#1E1E1E"/>
  
  <text x="400" y="40" font-family="Segoe UI, Arial, sans-serif" font-size="24" font-weight="bold" fill="#FFFFFF" text-anchor="middle">Tipos de Estado en Flutter</text>
  <text x="400" y="65" font-family="Segoe UI, Arial, sans-serif" font-size="14" fill="#B0B0B0" text-anchor="middle">Estado Efímero vs Estado de Aplicación</text>
  
  <rect x="50" y="100" width="320" height="350" rx="12" fill="#2D2D2D" stroke="#81C784" stroke-width="2"/>
  <text x="210" y="130" font-family="Segoe UI, Arial, sans-serif" font-size="18" font-weight="bold" fill="#81C784" text-anchor="middle">Estado Efímero</text>
  <text x="210" y="150" font-family="Segoe UI, Arial, sans-serif" font-size="12" fill="#B0B0B0" text-anchor="middle">(Local / UI State)</text>
  
  <rect x="70" y="170" width="280" height="40" rx="6" fill="#388E3C"/>
  <text x="210" y="195" font-family="Consolas, monospace" font-size="12" fill="#FFFFFF" text-anchor="middle">Animación actual</text>
  
  <rect x="70" y="220" width="280" height="40" rx="6" fill="#388E3C"/>
  <text x="210" y="245" font-family="Consolas, monospace" font-size="12" fill="#FFFFFF" text-anchor="middle">Página actual en PageView</text>
  
  <rect x="70" y="270" width="280" height="40" rx="6" fill="#388E3C"/>
  <text x="210" y="295" font-family="Consolas, monospace" font-size="12" fill="#FFFFFF" text-anchor="middle">TextField input temporal</text>
  
  <rect x="70" y="320" width="280" height="40" rx="6" fill="#388E3C"/>
  <text x="210" y="345" font-family="Consolas, monospace" font-size="12" fill="#FFFFFF" text-anchor="middle">BottomNav seleccionado</text>
  
  <rect x="70" y="380" width="280" height="50" rx="8" fill="#1B5E20" stroke="#81C784" stroke-width="1"/>
  <text x="210" y="400" font-family="Segoe UI, Arial, sans-serif" font-size="12" font-weight="bold" fill="#FFFFFF" text-anchor="middle">Solución:</text>
  <text x="210" y="418" font-family="Consolas, monospace" font-size="14" fill="#81C784" text-anchor="middle">setState()</text>
  
  <rect x="430" y="100" width="320" height="350" rx="12" fill="#2D2D2D" stroke="#64B5F6" stroke-width="2"/>
  <text x="590" y="130" font-family="Segoe UI, Arial, sans-serif" font-size="18" font-weight="bold" fill="#64B5F6" text-anchor="middle">Estado de Aplicación</text>
  <text x="590" y="150" font-family="Segoe UI, Arial, sans-serif" font-size="12" fill="#B0B0B0" text-anchor="middle">(Global / Shared State)</text>
  
  <rect x="450" y="170" width="280" height="40" rx="6" fill="#1565C0"/>
  <text x="590" y="195" font-family="Consolas, monospace" font-size="12" fill="#FFFFFF" text-anchor="middle">Usuario autenticado</text>
  
  <rect x="450" y="220" width="280" height="40" rx="6" fill="#1565C0"/>
  <text x="590" y="245" font-family="Consolas, monospace" font-size="12" fill="#FFFFFF" text-anchor="middle">Carrito de compras</text>
  
  <rect x="450" y="270" width="280" height="40" rx="6" fill="#1565C0"/>
  <text x="590" y="295" font-family="Consolas, monospace" font-size="12" fill="#FFFFFF" text-anchor="middle">Notificaciones sin leer</text>
  
  <rect x="450" y="320" width="280" height="40" rx="6" fill="#1565C0"/>
  <text x="590" y="345" font-family="Consolas, monospace" font-size="12" fill="#FFFFFF" text-anchor="middle">Preferencias del usuario</text>
  
  <rect x="450" y="380" width="280" height="50" rx="8" fill="#0D47A1" stroke="#64B5F6" stroke-width="1"/>
  <text x="590" y="400" font-family="Segoe UI, Arial, sans-serif" font-size="12" font-weight="bold" fill="#FFFFFF" text-anchor="middle">Soluciones:</text>
  <text x="590" y="418" font-family="Consolas, monospace" font-size="12" fill="#64B5F6" text-anchor="middle">Provider / BLoC / Riverpod</text>
  
  <rect x="100" y="460" width="600" height="30" rx="6" fill="#3E2723"/>
  <text x="400" y="480" font-family="Segoe UI, Arial, sans-serif" font-size="12" fill="#FFB74D" text-anchor="middle">💡 ¿Necesitas el estado en múltiples widgets? → Estado de Aplicación</text>
</svg>