<svg xmlns="http://www.w3.org/2000/svg" viewBox="0 0 800 520">
  <rect width="800" height="520" fill="#1E1E1E"/>
  
  <text x="400" y="35" font-family="Segoe UI, Arial, sans-serif" font-size="24" font-weight="bold" fill="#FFFFFF" text-anchor="middle">Arquitectura Provider</text>
  <text x="400" y="58" font-family="Segoe UI, Arial, sans-serif" font-size="14" fill="#B0B0B0" text-anchor="middle">InheritedWidget simplificado para gestión de estado</text>
  
  <rect x="300" y="80" width="200" height="90" rx="10" fill="#7B1FA2"/>
  <text x="400" y="105" font-family="Segoe UI, Arial, sans-serif" font-size="14" font-weight="bold" fill="#FFFFFF" text-anchor="middle">ChangeNotifier</text>
  <text x="400" y="125" font-family="Consolas, monospace" font-size="12" fill="#FFFFFF" text-anchor="middle">CartModel</text>
  <line x1="320" y1="135" x2="480" y2="135" stroke="#FFFFFF" stroke-width="1" opacity="0.3"/>
  <text x="400" y="155" font-family="Consolas, monospace" font-size="10" fill="#E1BEE7" text-anchor="middle">notifyListeners()</text>
  
  <path d="M 400 170 L 400 195" stroke="#FFB74D" stroke-width="2"/>
  <polygon points="400,200 395,192 405,192" fill="#FFB74D"/>
  
  <rect x="250" y="205" width="300" height="50" rx="10" fill="#1565C0"/>
  <text x="400" y="228" font-family="Segoe UI, Arial, sans-serif" font-size="13" font-weight="bold" fill="#FFFFFF" text-anchor="middle">ChangeNotifierProvider&lt;CartModel&gt;</text>
  <text x="400" y="245" font-family="Consolas, monospace" font-size="10" fill="#BBDEFB" text-anchor="middle">Provee instancia al subárbol</text>
  
  <rect x="320" y="285" width="160" height="35" rx="8" fill="#2D2D2D" stroke="#404040" stroke-width="1"/>
  <text x="400" y="308" font-family="Consolas, monospace" font-size="12" fill="#FFFFFF" text-anchor="middle">MaterialApp</text>
  
  <line x1="400" y1="320" x2="400" y2="340" stroke="#404040" stroke-width="2"/>
  <line x1="150" y1="340" x2="650" y2="340" stroke="#404040" stroke-width="2"/>
  <line x1="150" y1="340" x2="150" y2="360" stroke="#404040" stroke-width="2"/>
  <line x1="400" y1="340" x2="400" y2="360" stroke="#404040" stroke-width="2"/>
  <line x1="650" y1="340" x2="650" y2="360" stroke="#404040" stroke-width="2"/>
  
  <rect x="50" y="365" width="200" height="65" rx="8" fill="#388E3C"/>
  <text x="150" y="388" font-family="Segoe UI, Arial, sans-serif" font-size="11" font-weight="bold" fill="#FFFFFF" text-anchor="middle">Consumer&lt;CartModel&gt;</text>
  <text x="150" y="405" font-family="Consolas, monospace" font-size="11" fill="#FFFFFF" text-anchor="middle">CartScreen</text>
  <text x="150" y="422" font-family="Segoe UI, Arial, sans-serif" font-size="9" fill="#C8E6C9" text-anchor="middle">Rebuild con cambios</text>
  
  <rect x="300" y="365" width="200" height="65" rx="8" fill="#2D2D2D" stroke="#81C784" stroke-width="1"/>
  <text x="400" y="388" font-family="Segoe UI, Arial, sans-serif" font-size="11" font-weight="bold" fill="#81C784" text-anchor="middle">context.read&lt;T&gt;()</text>
  <text x="400" y="405" font-family="Consolas, monospace" font-size="11" fill="#FFFFFF" text-anchor="middle">ProductCard</text>
  <text x="400" y="422" font-family="Segoe UI, Arial, sans-serif" font-size="9" fill="#B0B0B0" text-anchor="middle">Solo acceso</text>
  
  <rect x="550" y="365" width="200" height="65" rx="8" fill="#388E3C"/>
  <text x="650" y="388" font-family="Segoe UI, Arial, sans-serif" font-size="11" font-weight="bold" fill="#FFFFFF" text-anchor="middle">Selector&lt;Cart,int&gt;</text>
  <text x="650" y="405" font-family="Consolas, monospace" font-size="11" fill="#FFFFFF" text-anchor="middle">CartBadge</text>
  <text x="650" y="422" font-family="Segoe UI, Arial, sans-serif" font-size="9" fill="#C8E6C9" text-anchor="middle">Solo items.length</text>
  
  <rect x="50" y="455" width="700" height="50" rx="8" fill="#2D2D2D" stroke="#404040" stroke-width="1"/>
  <text x="400" y="475" font-family="Segoe UI, Arial, sans-serif" font-size="12" font-weight="bold" fill="#FFFFFF" text-anchor="middle">Métodos de Acceso</text>
  <text x="140" y="495" font-family="Consolas, monospace" font-size="10" fill="#64B5F6">watch&lt;T&gt;() → escucha</text>
  <text x="340" y="495" font-family="Consolas, monospace" font-size="10" fill="#81C784">read&lt;T&gt;() → acceso</text>
  <text x="540" y="495" font-family="Consolas, monospace" font-size="10" fill="#FFB74D">select&lt;T,R&gt;() → selectivo</text>
</svg>